Coordinates
version=1
nRows=10
nColumns=27
inDegrees=yes

Units are S.I. units (second, meters, Newtons, ...)
If the header above contains a line with 'inDegrees', this indicates whether rotational values are in degrees (yes) or radians (no).

endheader
time	pelvis_rotation	pelvis_tilt	pelvis_list	pelvis_tx	pelvis_ty	pelvis_tz	hip_flexion_r	hip_adduction_r	hip_rotation_r	knee_angle_r	knee_rotation_r	knee_adduction_r	knee_angle_r_beta	ankle_angle_r	subtalar_angle_r	mtp_angle_r	hip_flexion_l	hip_adduction_l	hip_rotation_l	knee_angle_l	knee_rotation_l	knee_adduction_l	knee_angle_l_beta	ankle_angle_l	subtalar_angle_l	mtp_angle_l
      9.43500000	      4.34676637	      1.93738757	      0.16546362	      0.04625793	      0.90934646	     -1.19616001	      3.28953600	     -6.19943703	    -26.12968446	      7.60546869	      0.00000000	      8.46563371	      0.13274047	     -0.97648743	      0.00000000	      0.00000000	      5.60862331	     -5.17837340	    -13.45941242	      8.22165697	      0.00000000	     -7.18573758	      0.14349498	     -2.73094296	      0.00000000	      0.00000000
      9.44000000	      4.33490421	      1.96594776	      0.14882162	      0.04610933	      0.90931058	     -1.19626924	      3.27701025	     -6.18737151	    -26.09968562	      7.60812297	      0.00000000	      8.46094172	      0.13278680	     -0.99856714	      0.00000000	      0.00000000	      5.60904391	     -5.19679332	    -13.51894962	      8.26617130	      0.00000000	     -7.24900710	      0.14427191	     -2.70632512	      0.00000000	      0.00000000
      9.44500000	      4.34651496	      1.98004501	      0.18525762	      0.04593008	      0.90927795	     -1.19646049	      3.31305898	     -6.26104833	    -26.15669452	      7.69380432	      0.00000000	      8.49529361	      0.13428222	     -0.96074067	      0.00000000	      0.00000000	      5.59805562	     -5.14329342	    -13.48351628	      8.24502909	      0.00000000	     -7.22780332	      0.14390290	     -2.71501774	      0.00000000	      0.00000000
      9.45000000	      4.34817002	      2.00275347	      0.18653891	      0.04578296	      0.90925934	     -1.19659411	      3.30488495	     -6.27262184	    -26.15684263	      7.69999856	      0.00000000	      8.49749182	      0.13439033	     -0.97480345	      0.00000000	      0.00000000	      5.57995140	     -5.13349864	    -13.47759421	      8.23521579	      0.00000000	     -7.22958044	      0.14373163	     -2.72077158	      0.00000000	      0.00000000
      9.45500000	      4.34864243	      2.01506325	      0.17319383	      0.04562866	      0.90924128	     -1.19668538	      3.30982757	     -6.26864071	    -26.16250284	      7.71210676	      0.00000000	      8.49804343	      0.13460166	     -0.99003940	      0.00000000	      0.00000000	      5.59131969	     -5.14585703	    -13.52140973	      8.26453203	      0.00000000	     -7.27998749	      0.14424330	     -2.70256246	      0.00000000	      0.00000000
      9.46000000	      4.34938999	      2.02098868	      0.19749374	      0.04546107	      0.90923114	     -1.19686122	      3.32414659	     -6.30977125	    -26.15938723	      7.73208158	      0.00000000	      8.50234671	      0.13495028	     -0.98337486	      0.00000000	      0.00000000	      5.56979729	     -5.10499328	    -13.47843578	      8.21650231	      0.00000000	     -7.25197137	      0.14340502	     -2.72081655	      0.00000000	      0.00000000
      9.46500000	      4.34509647	      2.03805725	      0.23075837	      0.04531009	      0.90922147	     -1.19703204	      3.33823238	     -6.36443376	    -26.17812445	      7.77703096	      0.00000000	      8.51259354	      0.13573480	     -0.96787250	      0.00000000	      0.00000000	      5.54490376	     -5.05805210	    -13.48069963	      8.18547140	      0.00000000	     -7.24254498	      0.14286343	     -2.74254788	      0.00000000	      0.00000000
      9.47000000	      4.33881552	      2.04412785	      0.23837129	      0.04517033	      0.90922025	     -1.19714098	      3.33273381	     -6.37473834	    -26.17223355	      7.75431729	      0.00000000	      8.51266341	      0.13533837	     -0.98814547	      0.00000000	      0.00000000	      5.53656866	     -5.04463075	    -13.49198688	      8.16746640	      0.00000000	     -7.23646855	      0.14254918	     -2.75665956	      0.00000000	      0.00000000
      9.47500000	      4.16241553	      1.71539621	      0.29677419	      0.04392404	      0.90913799	     -1.19717434	      3.90978890	     -6.46712055	    -25.07159996	      8.08084876	      0.00000000	      7.54979389	      0.14103742	     -0.90282343	      0.00000000	      0.00000000	      5.97024571	     -5.01743500	    -13.25932823	      8.27930501	      0.00000000	     -6.69375129	      0.14450113	     -2.81697067	      0.00000000	      0.00000000
      9.48000000	      4.32943769	      2.05074373	      0.25102507	      0.04489452	      0.90922715	     -1.19737496	      3.33829785	     -6.39638636	    -26.15250599	      7.73512679	      0.00000000	      8.50104231	      0.13500343	     -1.01403023	      0.00000000	      0.00000000	      5.51213794	     -5.01315692	    -13.50039882	      8.10514061	      0.00000000	     -7.23987453	      0.14146139	     -2.78626703	      0.00000000	      0.00000000
